#!OML:ASF H:\GeneralSubjects\Female5\Project 1\Capture day 1\Session 1\Female5.ASF
:FULLY-SPECIFIED
:DEGREES
519
root 7.82556 15.4355 -9.2656 -557.136 -59.8383 -151.116
lowerback 11.9152 5.0338 8.7414
upperback -12.8003 8.63949 1.48659
thorax -20.9151 2.39991 -5.41039
lowerneck -13.1373 7.55733 10.9834
upperneck 32.8021 8.69394 -4.72589
head 14.1521 4.13219 -2.4754
rclavicle 2.28602e-014 6.36111e-015
rhumerus -44.1862 17.7878 -81.4081
rradius 35.7371
rwrist -10.588
rhand -26.1841 -23.3787
rfingers 7.12502
rthumb 0.367901 -53.3581
lclavicle 2.28602e-014 6.36111e-015
lhumerus -59.0298 -2.49928 69.0671
lradius 31.419
lwrist -0.826212
lhand -21.5964 30.1921
lfingers 7.12502
lthumb 4.79851 60.1178
rfemur 11.0416 0.538791 39.9145
rtibia 9.39671
rfoot -19.0943 -11.1058
rtoes -18.9441
lfemur -31.0503 -10.4442 -17.1817
ltibia 8.85158
lfoot -50.7525 20.1364
ltoes -38.8355
520
root 7.50941 15.4321 -9.37804 -556.742 -61.0368 -152.223
lowerback 11.9875 4.94148 7.66796
upperback -12.6871 8.2679 1.27073
thorax -20.958 2.3851 -5.00477
lowerneck -13.2968 7.34623 10.5757
upperneck 32.7081 8.46686 -4.64953
head 14.0885 3.99684 -2.40994
rclavicle 5.48646e-014 5.80451e-014
rhumerus -45.0222 17.4828 -82.141
rradius 36.0288
rwrist -10.5826
rhand -26.3694 -23.1023
rfingers 7.12502
rthumb 0.188921 -53.0819
lclavicle 5.48646e-014 5.80451e-014
lhumerus -58.9483 -1.74374 68.5628
lradius 30.7928
lwrist -1.01951
lhand -21.7351 30.42
lfingers 7.12502
lthumb 4.6646 60.3486
rfemur 10.4522 -2.55562 37.1013
rtibia 13.6934
rfoot -15.2195 -9.37654
rtoes -20.9722
lfemur -31.3717 -6.64855 -20.6926
ltibia 12.9822
lfoot -44.9199 18.9144
ltoes -38.6217
521
root 7.19656 15.4482 -9.47636 -556.069 -62.6289 -153.658
lowerback 12.1261 4.83353 6.49645
upperback -12.6184 7.83782 0.921415
thorax -21.1003 2.33482 -4.6927
lowerneck -13.4017 7.08948 10.3704
upperneck 32.8781 8.17337 -4.75598
head 14.1492 3.82712 -2.47135
rclavicle -1.98785e-016 2.14687e-014
rhumerus -46.1286 16.8424 -82.8672
rradius 36.346
rwrist -10.4044
rhand -26.3134 -22.7466
rfingers 7.12502
rthumb 0.243034 -52.7262
lclavicle -1.98785e-016 2.14687e-014
lhumerus -58.7363 -1.28603 68.2923
lradius 30.2353
lwrist -1.21482
lhand -21.8829 30.9957
lfingers 7.12502
lthumb 4.5218 60.9274
rfemur 9.53934 -5.57905 33.8034
rtibia 18.5516
rfoot -10.5772 -8.77383
rtoes -22.3773
lfemur -31.5405 -4.36554 -23.989
ltibia 16.7748
lfoot -40.7401 18.166
ltoes -40.5195
522
root 6.89468 15.4772 -9.55902 -556.015 -64.4141 -154.409
lowerback 12.3153 4.6272 5.64105
upperback -12.5245 7.3576 0.703635
thorax -21.2274 2.23037 -4.3784
lowerneck -13.595 6.91052 10.124
upperneck 33.3468 8.01179 -4.91281
head 14.3794 3.69398 -2.52814
rclavicle 5.96354e-016 4.21423e-014
rhumerus -47.077 16.4302 -83.5743
rradius 36.3402
rwrist -10.4722
rhand -25.7243 -22.9077
rfingers 7.12502
rthumb 0.812028 -52.8859
lclavicle 5.96354e-016 4.21423e-014
lhumerus -58.3923 -0.760179 68.2399
lradius 29.736
lwrist -1.5424
lhand -21.9124 30.8008
lfingers 7.12502
lthumb 4.49334 60.7332
rfemur 8.29112 -8.06757 30.855
rtibia 23.7459
rfoot -4.98208 -9.31904
rtoes -21.763
lfemur -30.0451 -5.11935 -26.0451
ltibia 17.6192
lfoot -39.4998 17.5457
ltoes -40.185
523
root 6.60742 15.5061 -9.62957 -556.541 -66.1817 -154.459
lowerback 12.5285 4.37979 5.08134
upperback -12.3799 6.91154 0.661134
thorax -21.2834 2.12226 -4.01926
lowerneck -13.5667 6.82744 9.844
upperneck 33.4805 8.08808 -5.23066
head 14.4387 3.6469 -2.6031
rclavicle -5.1684e-014 -6.36111e-014
rhumerus -47.7689 16.2518 -84.1068
rradius 36.1065
rwrist -10.508
rhand -24.3841 -23.7173
rfingers 7.12502
rthumb 2.10636 -53.6867
lclavicle -5.1684e-014 -6.36111e-014
lhumerus -57.9977 -0.525032 68.8801
lradius 29.5941
lwrist -1.4616
lhand -21.8034 29.964
lfingers 7.12502
lthumb 4.59864 59.8941
rfemur 6.62872 -9.66185 28.5435
rtibia 29.0145
rfoot 1.2274 -10.3773
rtoes -17.6363
lfemur -28.2562 -5.8358 -27.7162
ltibia 17.7335
lfoot -38.6061 16.8532
ltoes -39.8105
524
root 6.33598 15.529 -9.6873 -557.55 -67.8105 -153.922
lowerback 12.8317 4.18212 4.86293
upperback -12.2748 6.62634 0.679668
thorax -21.4087 2.03292 -3.82466
lowerneck -13.6381 6.78516 9.59526
upperneck 33.8595 8.27996 -5.75657
head 14.6605 3.61609 -2.75469
rclavicle -2.78299e-014 -1.51076e-014
rhumerus -48.4889 15.9901 -84.482
rradius 35.9766
rwrist -10.1713
rhand -23.284 -23.3823
rfingers 7.12502
rthumb 3.16887 -53.3385
lclavicle -2.78299e-014 -1.51076e-014
lhumerus -57.6117 -1.0252 70.3798
lradius 29.9403
lwrist -0.938854
lhand -21.2235 30.1019
lfingers 7.12502
lthumb 5.15857 60.0192
rfemur 4.53993 -10.5369 26.8548
rtibia 34.2259
rfoot 6.71396 -12.2484
rtoes -8.55128
lfemur -26.3238 -6.37375 -29.0669
ltibia 17.2475
lfoot -37.2701 17.0182
ltoes -40.8874
525
root 6.0741 15.5474 -9.73493 -558.822 -69.2524 -153.101
lowerback 13.194 4.06807 4.89711
upperback -12.1987 6.51196 0.65437
thorax -21.5646 1.97103 -3.87387
lowerneck -13.5264 6.67379 9.45634
upperneck 34.1399 8.3672 -6.3321
head 14.7973 3.55096 -2.96962
rclavicle -3.35946e-014 -1.51076e-014
rhumerus -49.2589 15.6636 -84.9407
rradius 35.7608
rwrist -10.223
rhand -23.1819 -21.0153
rfingers 7.12502
rthumb 3.26742 -50.97
lclavicle -3.35946e-014 -1.51076e-014
lhumerus -57.1946 -2.04406 72.1742
lradius 30.6606
lwrist -0.642337
lhand -19.7081 30.9521
lfingers 7.12502
lthumb 6.62159 60.8286
rfemur 2.20538 -10.8207 25.6592
rtibia 39.0352
rfoot 13.9077 -12.0275
rtoes -20.9586
lfemur -24.3568 -6.94404 -30.1391
ltibia 16.598
lfoot -36.3411 16.708
ltoes -41.3825
526
root 5.81694 15.5648 -9.77846 -558.931 -70.696 -153.372
lowerback 13.4025 4.08229 4.5952
upperback -12.132 6.45713 0.469509
thorax -21.6305 1.97328 -3.93312
lowerneck -13.3485 6.48097 9.26796
upperneck 34.2961 8.31841 -6.8133
head 14.8385 3.43911 -3.15983
rclavicle -3.598e-014 -1.43125e-014
rhumerus -49.8898 15.3489 -85.4755
rradius 35.3956
rwrist -10.4317
rhand -22.971 -20.1367
rfingers 7.12502
rthumb 3.47108 -50.0881
lclavicle -3.598e-014 -1.43125e-014
lhumerus -56.7584 -3.34821 73.935
lradius 31.7389
lwrist -0.673022
lhand -18.3504 30.4149
lfingers 7.12502
lthumb 7.93213 60.2461
rfemur -0.381457 -10.7136 24.3351
rtibia 43.3019
rfoot 18.6479 -10.9843
rtoes -27.2337
lfemur -22.5163 -7.44926 -31.5494
ltibia 16.0479
lfoot -35.9776 15.6154
ltoes -41.0113
527
root 5.56857 15.5879 -9.82188 -558.498 -72.1979 -154.015
lowerback 13.4094 4.07293 3.99478
upperback -12.0759 6.29978 0.404745
thorax -21.6272 1.99491 -3.63523
lowerneck -13.2044 6.41952 8.80049
upperneck 34.4883 8.52463 -7.23302
head 14.9135 3.40444 -3.23187
rclavicle -1.37161e-014 1.11319e-014
rhumerus -50.4637 15.6775 -86.1422
rradius 34.8052
rwrist -10.7402
rhand -23.2049 -19.7065
rfingers 7.12502
rthumb 3.24526 -49.6615
lclavicle -1.37161e-014 1.11319e-014
lhumerus -56.4381 -4.50246 75.7597
lradius 33.2075
lwrist -0.753378
lhand -17.9686 28.8017
lfingers 7.12502
lthumb 8.30062 58.6186
rfemur -3.29075 -10.4861 23.1091
rtibia 47.4482
rfoot 18.1936 -11.791
rtoes -30.8447
lfemur -20.9607 -7.84987 -32.982
ltibia 15.7253
lfoot -35.7676 14.1649
ltoes -40.489
